<svg xmlns="http://www.w3.org/2000/svg" width="778" height="146" viewBox="0 0 778 146" role="img" aria-label="LeetCode submissions per day, last 53 weeks">
<style>text{font:10px -apple-system, Segoe UI, Helvetica, Arial, sans-serif;fill:#57606a}rect{rx:2px;ry:2px;stroke:rgba(27,31,35,.06);stroke-width:1px}.l0{fill:#ebedf0}.l1{fill:#9be9a8}.l2{fill:#40c463}.l3{fill:#30a14e}.l4{fill:#216e39}@media (prefers-color-scheme:dark){text{fill:#8b949e}rect{stroke:rgba(255,255,255,.05)}.l0{fill:#161b22}.l1{fill:#0e4429}.l2{fill:#006d32}.l3{fill:#26a641}.l4{fill:#39d353}}</style>
<text x="34" y="14">Oct</text>
<rect class="l0" x="34" y="22" width="11" height="11"/>
<rect class="l0" x="34" y="36" width="11" height="11"/>
<rect class="l0" x="34" y="50" width="11" height="11"/>
<rect class="l0" x="34" y="64" width="11" height="11"/>
<rect class="l0" x="34" y="78" width="11" height="11"/>
<rect class="l0" x="34" y="92" width="11" height="11"/>
<rect class="l0" x="34" y="106" width="11" height="11"/>
<rect class="l0" x="48" y="22" width="11" height="11"/>
<rect class="l0" x="48" y="36" width="11" height="11"/>
<rect class="l0" x="48" y="50" width="11" height="11"/>
<rect class="l0" x="48" y="64" width="11" height="11"/>
<rect class="l0" x="48" y="78" width="11" height="11"/>
<rect class="l0" x="48" y="92" width="11" height="11"/>
<rect class="l0" x="48" y="106" width="11" height="11"/>
<rect class="l0" x="62" y="22" width="11" height="11"/>
<rect class="l0" x="62" y="36" width="11" height="11"/>
<rect class="l0" x="62" y="50" width="11" height="11"/>
<rect class="l3" x="62" y="64" width="11" height="11"/>
<rect class="l0" x="62" y="78" width="11" height="11"/>
<rect class="l0" x="62" y="92" width="11" height="11"/>
<rect class="l0" x="62" y="106" width="11" height="11"/>
<text x="76" y="14">Nov</text>
<rect class="l2" x="76" y="22" width="11" height="11"/>
<rect class="l2" x="76" y="36" width="11" height="11"/>
<rect class="l2" x="76" y="50" width="11" height="11"/>
<rect class="l3" x="76" y="64" width="11" height="11"/>
<rect class="l0" x="76" y="78" width="11" height="11"/>
<rect class="l0" x="76" y="92" width="11" height="11"/>
<rect class="l0" x="76" y="106" width="11" height="11"/>
<rect class="l0" x="90" y="22" width="11" height="11"/>
<rect class="l0" x="90" y="36" width="11" height="11"/>
<rect class="l3" x="90" y="50" width="11" height="11"/>
<rect class="l1" x="90" y="64" width="11" height="11"/>
<rect class="l0" x="90" y="78" width="11" height="11"/>
<rect class="l0" x="90" y="92" width="11" height="11"/>
<rect class="l1" x="90" y="106" width="11" height="11"/>
<rect class="l0" x="104" y="22" width="11" height="11"/>
<rect class="l0" x="104" y="36" width="11" height="11"/>
<rect class="l0" x="104" y="50" width="11" height="11"/>
<rect class="l2" x="104" y="64" width="11" height="11"/>
<rect class="l0" x="104" y="78" width="11" height="11"/>
<rect class="l0" x="104" y="92" width="11" height="11"/>
<rect class="l0" x="104" y="106" width="11" height="11"/>
<rect class="l0" x="118" y="22" width="11" height="11"/>
<rect class="l2" x="118" y="36" width="11" height="11"/>
<rect class="l3" x="118" y="50" width="11" height="11"/>
<rect class="l0" x="118" y="64" width="11" height="11"/>
<rect class="l0" x="118" y="78" width="11" height="11"/>
<rect class="l0" x="118" y="92" width="11" height="11"/>
<rect class="l0" x="118" y="106" width="11" height="11"/>
<rect class="l2" x="132" y="22" width="11" height="11"/>
<rect class="l0" x="132" y="36" width="11" height="11"/>
<rect class="l0" x="132" y="50" width="11" height="11"/>
<rect class="l0" x="132" y="64" width="11" height="11"/>
<rect class="l0" x="132" y="78" width="11" height="11"/>
<rect class="l1" x="132" y="92" width="11" height="11"/>
<rect class="l2" x="132" y="106" width="11" height="11"/>
<text x="146" y="14">Dec</text>
<rect class="l1" x="146" y="22" width="11" height="11"/>
<rect class="l1" x="146" y="36" width="11" height="11"/>
<rect class="l2" x="146" y="50" width="11" height="11"/>
<rect class="l0" x="146" y="64" width="11" height="11"/>
<rect class="l1" x="146" y="78" width="11" height="11"/>
<rect class="l0" x="146" y="92" width="11" height="11"/>
<rect class="l0" x="146" y="106" width="11" height="11"/>
<rect class="l0" x="160" y="22" width="11" height="11"/>
<rect class="l0" x="160" y="36" width="11" height="11"/>
<rect class="l0" x="160" y="50" width="11" height="11"/>
<rect class="l0" x="160" y="64" width="11" height="11"/>
<rect class="l0" x="160" y="78" width="11" height="11"/>
<rect class="l0" x="160" y="92" width="11" height="11"/>
<rect class="l1" x="160" y="106" width="11" height="11"/>
<rect class="l1" x="174" y="22" width="11" height="11"/>
<rect class="l0" x="174" y="36" width="11" height="11"/>
<rect class="l0" x="174" y="50" width="11" height="11"/>
<rect class="l0" x="174" y="64" width="11" height="11"/>
<rect class="l1" x="174" y="78" width="11" height="11"/>
<rect class="l3" x="174" y="92" width="11" height="11"/>
<rect class="l1" x="174" y="106" width="11" height="11"/>
<rect class="l0" x="188" y="22" width="11" height="11"/>
<rect class="l0" x="188" y="36" width="11" height="11"/>
<rect class="l0" x="188" y="50" width="11" height="11"/>
<rect class="l0" x="188" y="64" width="11" height="11"/>
<rect class="l0" x="188" y="78" width="11" height="11"/>
<rect class="l0" x="188" y="92" width="11" height="11"/>
<rect class="l0" x="188" y="106" width="11" height="11"/>
<text x="202" y="14">Jan</text>
<rect class="l0" x="202" y="22" width="11" height="11"/>
<rect class="l0" x="202" y="36" width="11" height="11"/>
<rect class="l0" x="202" y="50" width="11" height="11"/>
<rect class="l0" x="202" y="64" width="11" height="11"/>
<rect class="l0" x="202" y="78" width="11" height="11"/>
<rect class="l0" x="202" y="92" width="11" height="11"/>
<rect class="l1" x="202" y="106" width="11" height="11"/>
<rect class="l1" x="216" y="22" width="11" height="11"/>
<rect class="l3" x="216" y="36" width="11" height="11"/>
<rect class="l1" x="216" y="50" width="11" height="11"/>
<rect class="l3" x="216" y="64" width="11" height="11"/>
<rect class="l2" x="216" y="78" width="11" height="11"/>
<rect class="l1" x="216" y="92" width="11" height="11"/>
<rect class="l1" x="216" y="106" width="11" height="11"/>
<rect class="l0" x="230" y="22" width="11" height="11"/>
<rect class="l2" x="230" y="36" width="11" height="11"/>
<rect class="l0" x="230" y="50" width="11" height="11"/>
<rect class="l2" x="230" y="64" width="11" height="11"/>
<rect class="l2" x="230" y="78" width="11" height="11"/>
<rect class="l0" x="230" y="92" width="11" height="11"/>
<rect class="l0" x="230" y="106" width="11" height="11"/>
<rect class="l0" x="244" y="22" width="11" height="11"/>
<rect class="l0" x="244" y="36" width="11" height="11"/>
<rect class="l0" x="244" y="50" width="11" height="11"/>
<rect class="l2" x="244" y="64" width="11" height="11"/>
<rect class="l0" x="244" y="78" width="11" height="11"/>
<rect class="l0" x="244" y="92" width="11" height="11"/>
<rect class="l0" x="244" y="106" width="11" height="11"/>
<rect class="l0" x="258" y="22" width="11" height="11"/>
<rect class="l0" x="258" y="36" width="11" height="11"/>
<rect class="l0" x="258" y="50" width="11" height="11"/>
<rect class="l0" x="258" y="64" width="11" height="11"/>
<rect class="l2" x="258" y="78" width="11" height="11"/>
<rect class="l0" x="258" y="92" width="11" height="11"/>
<rect class="l0" x="258" y="106" width="11" height="11"/>
<text x="272" y="14">Feb</text>
<rect class="l0" x="272" y="22" width="11" height="11"/>
<rect class="l0" x="272" y="36" width="11" height="11"/>
<rect class="l0" x="272" y="50" width="11" height="11"/>
<rect class="l0" x="272" y="64" width="11" height="11"/>
<rect class="l0" x="272" y="78" width="11" height="11"/>
<rect class="l0" x="272" y="92" width="11" height="11"/>
<rect class="l1" x="272" y="106" width="11" height="11"/>
<rect class="l2" x="286" y="22" width="11" height="11"/>
<rect class="l0" x="286" y="36" width="11" height="11"/>
<rect class="l0" x="286" y="50" width="11" height="11"/>
<rect class="l0" x="286" y="64" width="11" height="11"/>
<rect class="l0" x="286" y="78" width="11" height="11"/>
<rect class="l0" x="286" y="92" width="11" height="11"/>
<rect class="l1" x="286" y="106" width="11" height="11"/>
<rect class="l0" x="300" y="22" width="11" height="11"/>
<rect class="l0" x="300" y="36" width="11" height="11"/>
<rect class="l0" x="300" y="50" width="11" height="11"/>
<rect class="l0" x="300" y="64" width="11" height="11"/>
<rect class="l0" x="300" y="78" width="11" height="11"/>
<rect class="l0" x="300" y="92" width="11" height="11"/>
<rect class="l0" x="300" y="106" width="11" height="11"/>
<rect class="l0" x="314" y="22" width="11" height="11"/>
<rect class="l0" x="314" y="36" width="11" height="11"/>
<rect class="l0" x="314" y="50" width="11" height="11"/>
<rect class="l0" x="314" y="64" width="11" height="11"/>
<rect class="l0" x="314" y="78" width="11" height="11"/>
<rect class="l0" x="314" y="92" width="11" height="11"/>
<rect class="l0" x="314" y="106" width="11" height="11"/>
<text x="328" y="14">Mar</text>
<rect class="l0" x="328" y="22" width="11" height="11"/>
<rect class="l0" x="328" y="36" width="11" height="11"/>
<rect class="l0" x="328" y="50" width="11" height="11"/>
<rect class="l0" x="328" y="64" width="11" height="11"/>
<rect class="l0" x="328" y="78" width="11" height="11"/>
<rect class="l0" x="328" y="92" width="11" height="11"/>
<rect class="l0" x="328" y="106" width="11" height="11"/>
<rect class="l0" x="342" y="22" width="11" height="11"/>
<rect class="l0" x="342" y="36" width="11" height="11"/>
<rect class="l0" x="342" y="50" width="11" height="11"/>
<rect class="l0" x="342" y="64" width="11" height="11"/>
<rect class="l0" x="342" y="78" width="11" height="11"/>
<rect class="l0" x="342" y="92" width="11" height="11"/>
<rect class="l0" x="342" y="106" width="11" height="11"/>
<rect class="l0" x="356" y="22" width="11" height="11"/>
<rect class="l0" x="356" y="36" width="11" height="11"/>
<rect class="l0" x="356" y="50" width="11" height="11"/>
<rect class="l0" x="356" y="64" width="11" height="11"/>
<rect class="l0" x="356" y="78" width="11" height="11"/>
<rect class="l0" x="356" y="92" width="11" height="11"/>
<rect class="l0" x="356" y="106" width="11" height="11"/>
<rect class="l0" x="370" y="22" width="11" height="11"/>
<rect class="l0" x="370" y="36" width="11" height="11"/>
<rect class="l0" x="370" y="50" width="11" height="11"/>
<rect class="l0" x="370" y="64" width="11" height="11"/>
<rect class="l0" x="370" y="78" width="11" height="11"/>
<rect class="l0" x="370" y="92" width="11" height="11"/>
<rect class="l0" x="370" y="106" width="11" height="11"/>
<text x="384" y="14">Apr</text>
<rect class="l0" x="384" y="22" width="11" height="11"/>
<rect class="l0" x="384" y="36" width="11" height="11"/>
<rect class="l0" x="384" y="50" width="11" height="11"/>
<rect class="l0" x="384" y="64" width="11" height="11"/>
<rect class="l0" x="384" y="78" width="11" height="11"/>
<rect class="l0" x="384" y="92" width="11" height="11"/>
<rect class="l0" x="384" y="106" width="11" height="11"/>
<rect class="l0" x="398" y="22" width="11" height="11"/>
<rect class="l0" x="398" y="36" width="11" height="11"/>
<rect class="l0" x="398" y="50" width="11" height="11"/>
<rect class="l0" x="398" y="64" width="11" height="11"/>
<rect class="l0" x="398" y="78" width="11" height="11"/>
<rect class="l0" x="398" y="92" width="11" height="11"/>
<rect class="l0" x="398" y="106" width="11" height="11"/>
<rect class="l0" x="412" y="22" width="11" height="11"/>
<rect class="l0" x="412" y="36" width="11" height="11"/>
<rect class="l0" x="412" y="50" width="11" height="11"/>
<rect class="l0" x="412" y="64" width="11" height="11"/>
<rect class="l0" x="412" y="78" width="11" height="11"/>
<rect class="l0" x="412" y="92" width="11" height="11"/>
<rect class="l0" x="412" y="106" width="11" height="11"/>
<rect class="l0" x="426" y="22" width="11" height="11"/>
<rect class="l1" x="426" y="36" width="11" height="11"/>
<rect class="l0" x="426" y="50" width="11" height="11"/>
<rect class="l0" x="426" y="64" width="11" height="11"/>
<rect class="l0" x="426" y="78" width="11" height="11"/>
<rect class="l0" x="426" y="92" width="11" height="11"/>
<rect class="l0" x="426" y="106" width="11" height="11"/>
<text x="440" y="14">May</text>
<rect class="l0" x="440" y="22" width="11" height="11"/>
<rect class="l0" x="440" y="36" width="11" height="11"/>
<rect class="l0" x="440" y="50" width="11" height="11"/>
<rect class="l0" x="440" y="64" width="11" height="11"/>
<rect class="l0" x="440" y="78" width="11" height="11"/>
<rect class="l0" x="440" y="92" width="11" height="11"/>
<rect class="l0" x="440" y="106" width="11" height="11"/>
<rect class="l0" x="454" y="22" width="11" height="11"/>
<rect class="l0" x="454" y="36" width="11" height="11"/>
<rect class="l0" x="454" y="50" width="11" height="11"/>
<rect class="l0" x="454" y="64" width="11" height="11"/>
<rect class="l0" x="454" y="78" width="11" height="11"/>
<rect class="l0" x="454" y="92" width="11" height="11"/>
<rect class="l0" x="454" y="106" width="11" height="11"/>
<rect class="l0" x="468" y="22" width="11" height="11"/>
<rect class="l0" x="468" y="36" width="11" height="11"/>
<rect class="l0" x="468" y="50" width="11" height="11"/>
<rect class="l0" x="468" y="64" width="11" height="11"/>
<rect class="l0" x="468" y="78" width="11" height="11"/>
<rect class="l0" x="468" y="92" width="11" height="11"/>
<rect class="l0" x="468" y="106" width="11" height="11"/>
<rect class="l0" x="482" y="22" width="11" height="11"/>
<rect class="l0" x="482" y="36" width="11" height="11"/>
<rect class="l0" x="482" y="50" width="11" height="11"/>
<rect class="l0" x="482" y="64" width="11" height="11"/>
<rect class="l0" x="482" y="78" width="11" height="11"/>
<rect class="l0" x="482" y="92" width="11" height="11"/>
<rect class="l0" x="482" y="106" width="11" height="11"/>
<rect class="l0" x="496" y="22" width="11" height="11"/>
<rect class="l0" x="496" y="36" width="11" height="11"/>
<rect class="l0" x="496" y="50" width="11" height="11"/>
<rect class="l0" x="496" y="64" width="11" height="11"/>
<rect class="l0" x="496" y="78" width="11" height="11"/>
<rect class="l0" x="496" y="92" width="11" height="11"/>
<rect class="l0" x="496" y="106" width="11" height="11"/>
<text x="510" y="14">Jun</text>
<rect class="l0" x="510" y="22" width="11" height="11"/>
<rect class="l0" x="510" y="36" width="11" height="11"/>
<rect class="l0" x="510" y="50" width="11" height="11"/>
<rect class="l0" x="510" y="64" width="11" height="11"/>
<rect class="l0" x="510" y="78" width="11" height="11"/>
<rect class="l0" x="510" y="92" width="11" height="11"/>
<rect class="l0" x="510" y="106" width="11" height="11"/>
<rect class="l0" x="524" y="22" width="11" height="11"/>
<rect class="l0" x="524" y="36" width="11" height="11"/>
<rect class="l0" x="524" y="50" width="11" height="11"/>
<rect class="l0" x="524" y="64" width="11" height="11"/>
<rect class="l0" x="524" y="78" width="11" height="11"/>
<rect class="l0" x="524" y="92" width="11" height="11"/>
<rect class="l0" x="524" y="106" width="11" height="11"/>
<rect class="l0" x="538" y="22" width="11" height="11"/>
<rect class="l0" x="538" y="36" width="11" height="11"/>
<rect class="l0" x="538" y="50" width="11" height="11"/>
<rect class="l0" x="538" y="64" width="11" height="11"/>
<rect class="l0" x="538" y="78" width="11" height="11"/>
<rect class="l0" x="538" y="92" width="11" height="11"/>
<rect class="l0" x="538" y="106" width="11" height="11"/>
<rect class="l0" x="552" y="22" width="11" height="11"/>
<rect class="l0" x="552" y="36" width="11" height="11"/>
<rect class="l0" x="552" y="50" width="11" height="11"/>
<rect class="l0" x="552" y="64" width="11" height="11"/>
<rect class="l0" x="552" y="78" width="11" height="11"/>
<rect class="l0" x="552" y="92" width="11" height="11"/>
<rect class="l0" x="552" y="106" width="11" height="11"/>
<text x="566" y="14">Jul</text>
<rect class="l0" x="566" y="22" width="11" height="11"/>
<rect class="l0" x="566" y="36" width="11" height="11"/>
<rect class="l0" x="566" y="50" width="11" height="11"/>
<rect class="l0" x="566" y="64" width="11" height="11"/>
<rect class="l0" x="566" y="78" width="11" height="11"/>
<rect class="l0" x="566" y="92" width="11" height="11"/>
<rect class="l0" x="566" y="106" width="11" height="11"/>
<rect class="l0" x="580" y="22" width="11" height="11"/>
<rect class="l0" x="580" y="36" width="11" height="11"/>
<rect class="l0" x="580" y="50" width="11" height="11"/>
<rect class="l0" x="580" y="64" width="11" height="11"/>
<rect class="l0" x="580" y="78" width="11" height="11"/>
<rect class="l0" x="580" y="92" width="11" height="11"/>
<rect class="l0" x="580" y="106" width="11" height="11"/>
<rect class="l0" x="594" y="22" width="11" height="11"/>
<rect class="l0" x="594" y="36" width="11" height="11"/>
<rect class="l0" x="594" y="50" width="11" height="11"/>
<rect class="l0" x="594" y="64" width="11" height="11"/>
<rect class="l2" x="594" y="78" width="11" height="11"/>
<rect class="l0" x="594" y="92" width="11" height="11"/>
<rect class="l0" x="594" y="106" width="11" height="11"/>
<rect class="l0" x="608" y="22" width="11" height="11"/>
<rect class="l0" x="608" y="36" width="11" height="11"/>
<rect class="l0" x="608" y="50" width="11" height="11"/>
<rect class="l0" x="608" y="64" width="11" height="11"/>
<rect class="l1" x="608" y="78" width="11" height="11"/>
<rect class="l0" x="608" y="92" width="11" height="11"/>
<rect class="l0" x="608" y="106" width="11" height="11"/>
<text x="622" y="14">Aug</text>
<rect class="l0" x="622" y="22" width="11" height="11"/>
<rect class="l0" x="622" y="36" width="11" height="11"/>
<rect class="l0" x="622" y="50" width="11" height="11"/>
<rect class="l0" x="622" y="64" width="11" height="11"/>
<rect class="l0" x="622" y="78" width="11" height="11"/>
<rect class="l1" x="622" y="92" width="11" height="11"/>
<rect class="l0" x="622" y="106" width="11" height="11"/>
<rect class="l0" x="636" y="22" width="11" height="11"/>
<rect class="l0" x="636" y="36" width="11" height="11"/>
<rect class="l2" x="636" y="50" width="11" height="11"/>
<rect class="l1" x="636" y="64" width="11" height="11"/>
<rect class="l0" x="636" y="78" width="11" height="11"/>
<rect class="l2" x="636" y="92" width="11" height="11"/>
<rect class="l1" x="636" y="106" width="11" height="11"/>
<rect class="l2" x="650" y="22" width="11" height="11"/>
<rect class="l3" x="650" y="36" width="11" height="11"/>
<rect class="l4" x="650" y="50" width="11" height="11"/>
<rect class="l3" x="650" y="64" width="11" height="11"/>
<rect class="l4" x="650" y="78" width="11" height="11"/>
<rect class="l1" x="650" y="92" width="11" height="11"/>
<rect class="l3" x="650" y="106" width="11" height="11"/>
<rect class="l1" x="664" y="22" width="11" height="11"/>
<rect class="l3" x="664" y="36" width="11" height="11"/>
<rect class="l4" x="664" y="50" width="11" height="11"/>
<rect class="l1" x="664" y="64" width="11" height="11"/>
<rect class="l1" x="664" y="78" width="11" height="11"/>
<rect class="l1" x="664" y="92" width="11" height="11"/>
<rect class="l3" x="664" y="106" width="11" height="11"/>
<rect class="l2" x="678" y="22" width="11" height="11"/>
<rect class="l3" x="678" y="36" width="11" height="11"/>
<rect class="l1" x="678" y="50" width="11" height="11"/>
<rect class="l3" x="678" y="64" width="11" height="11"/>
<rect class="l3" x="678" y="78" width="11" height="11"/>
<rect class="l3" x="678" y="92" width="11" height="11"/>
<rect class="l3" x="678" y="106" width="11" height="11"/>
<text x="692" y="14">Sep</text>
<rect class="l3" x="692" y="22" width="11" height="11"/>
<rect class="l1" x="692" y="36" width="11" height="11"/>
<rect class="l4" x="692" y="50" width="11" height="11"/>
<rect class="l2" x="692" y="64" width="11" height="11"/>
<rect class="l3" x="692" y="78" width="11" height="11"/>
<rect class="l4" x="692" y="92" width="11" height="11"/>
<rect class="l0" x="692" y="106" width="11" height="11"/>
<rect class="l4" x="706" y="22" width="11" height="11"/>
<rect class="l3" x="706" y="36" width="11" height="11"/>
<rect class="l3" x="706" y="50" width="11" height="11"/>
<rect class="l2" x="706" y="64" width="11" height="11"/>
<rect class="l3" x="706" y="78" width="11" height="11"/>
<rect class="l3" x="706" y="92" width="11" height="11"/>
<rect class="l0" x="706" y="106" width="11" height="11"/>
<rect class="l2" x="720" y="22" width="11" height="11"/>
<rect class="l2" x="720" y="36" width="11" height="11"/>
<rect class="l3" x="720" y="50" width="11" height="11"/>
<rect class="l3" x="720" y="64" width="11" height="11"/>
<rect class="l3" x="720" y="78" width="11" height="11"/>
<rect class="l1" x="720" y="92" width="11" height="11"/>
<rect class="l1" x="720" y="106" width="11" height="11"/>
<rect class="l4" x="734" y="22" width="11" height="11"/>
<rect class="l3" x="734" y="36" width="11" height="11"/>
<rect class="l0" x="734" y="50" width="11" height="11"/>
<rect class="l2" x="734" y="64" width="11" height="11"/>
<rect class="l1" x="734" y="78" width="11" height="11"/>
<rect class="l2" x="734" y="92" width="11" height="11"/>
<rect class="l4" x="734" y="106" width="11" height="11"/>
<text x="748" y="14">Oct</text>
<rect class="l3" x="748" y="22" width="11" height="11"/>
<rect class="l1" x="748" y="36" width="11" height="11"/>
<rect class="l2" x="748" y="50" width="11" height="11"/>
<rect class="l0" x="748" y="64" width="11" height="11"/>
<rect class="l2" x="748" y="78" width="11" height="11"/>
<rect class="l2" x="748" y="92" width="11" height="11"/>
<rect class="l2" x="748" y="106" width="11" height="11"/>
<rect class="l3" x="762" y="22" width="11" height="11"/>
<rect class="l1" x="762" y="36" width="11" height="11"/>
<rect class="l2" x="762" y="50" width="11" height="11"/>
<rect class="l3" x="762" y="64" width="11" height="11"/>
<rect class="l3" x="762" y="78" width="11" height="11"/>
<rect class="l0" x="762" y="92" width="11" height="11"/>
<text x="0" y="45">Mon</text>
<text x="0" y="73">Wed</text>
<text x="0" y="101">Fri</text>
<text x="648" y="137">Less</text>
<rect class="l0" x="676" y="128" width="11" height="11"/>
<rect class="l1" x="690" y="128" width="11" height="11"/>
<rect class="l2" x="704" y="128" width="11" height="11"/>
<rect class="l3" x="718" y="128" width="11" height="11"/>
<rect class="l4" x="732" y="128" width="11" height="11"/>
<text x="749" y="137">More</text>
</svg>
